M48
;DRILL file {KiCad 4.0.5-e0-6337~49~ubuntu14.04.1} date Sun Mar 12 14:51:10 2017
;FORMAT={-:-/ absolute / inch / decimal}
FMAT,2
INCH,TZ
T1C0.012
T2C0.016
T3C0.028
T4C0.039
%
G90
G05
M72
T1
X5.305Y-4.22
X5.305Y-4.98
X5.73Y-4.22
X5.735Y-4.98
X6.1025Y-4.3425
X6.135Y-4.22
X6.135Y-4.445
X6.135Y-4.595
X6.14Y-4.98
X6.1575Y-4.295
X6.535Y-4.98
X6.7425Y-4.2775
X6.7425Y-4.405
T2
X5.675Y-4.3
X6.17Y-4.4
X6.3Y-4.35
X6.304Y-4.468
X6.304Y-4.734
X6.305Y-4.4
X6.37Y-4.24
X6.44Y-4.2875
X6.545Y-4.35
X6.545Y-4.45
X6.6725Y-4.655
X6.7Y-4.275
T3
X6.0387Y-4.4031
X6.0387Y-4.4819
X6.0387Y-4.5606
X6.0387Y-4.6394
X6.0387Y-4.7181
X6.0387Y-4.7969
T4
X6.816Y-4.2575
X6.816Y-4.3575
X6.816Y-4.4575
X6.816Y-4.5575
X6.816Y-4.6575
X6.816Y-4.7575
X6.916Y-4.2575
X6.916Y-4.3575
X6.916Y-4.4575
X6.916Y-4.5575
X6.916Y-4.6575
X6.916Y-4.7575
T0
M30
