G04 #@! TF.FileFunction,Copper,L1,Top,Signal*
%FSLAX46Y46*%
G04 Gerber Fmt 4.6, Leading zero omitted, Abs format (unit mm)*
G04 Created by KiCad (PCBNEW 4.0.5-e0-6337~49~ubuntu14.04.1) date Sun Mar 12 14:50:38 2017*
%MOMM*%
%LPD*%
G01*
G04 APERTURE LIST*
%ADD10C,0.100000*%
%ADD11C,0.600000*%
%ADD12R,1.700000X1.700000*%
%ADD13O,1.700000X1.700000*%
%ADD14O,2.540000X1.524000*%
%ADD15R,1.500000X0.600000*%
%ADD16C,1.700000*%
%ADD17C,0.300000*%
%ADD18C,0.250000*%
%ADD19C,0.254000*%
G04 APERTURE END LIST*
D10*
D11*
X155829000Y-116713000D03*
X155829000Y-107188000D03*
X145542000Y-107188000D03*
X134747000Y-107188000D03*
X134747000Y-126492000D03*
X145669000Y-126492000D03*
X155956000Y-126492000D03*
X165989000Y-126492000D03*
X171259500Y-111887000D03*
X171259500Y-108648500D03*
X156400500Y-109093000D03*
X155003500Y-110299500D03*
D10*
G36*
X170025000Y-120735000D02*
X170025000Y-121835000D01*
X168525000Y-122235000D01*
X168525000Y-120335000D01*
X170025000Y-120735000D01*
X170025000Y-120735000D01*
G37*
G36*
X168025000Y-120335000D02*
X168025000Y-122235000D01*
X166525000Y-121835000D01*
X166525000Y-120735000D01*
X168025000Y-120335000D01*
X168025000Y-120335000D01*
G37*
D12*
X173125476Y-108140000D03*
D13*
X175665476Y-108140000D03*
X173125476Y-110680000D03*
X175665476Y-110680000D03*
X173125476Y-113220000D03*
X175665476Y-113220000D03*
X173125476Y-115760000D03*
X175665476Y-115760000D03*
X173125476Y-118300000D03*
X175665476Y-118300000D03*
X173125476Y-120840000D03*
X175665476Y-120840000D03*
D14*
X153384000Y-111840000D03*
X153384000Y-113840000D03*
X153384000Y-115840000D03*
X153384000Y-117840000D03*
X153384000Y-119840000D03*
X153384000Y-121840000D03*
D15*
X158545000Y-109220000D03*
X158545000Y-110490000D03*
X158545000Y-111760000D03*
X158545000Y-113030000D03*
X158545000Y-114300000D03*
X158545000Y-115570000D03*
X158545000Y-116840000D03*
X158545000Y-118110000D03*
X167845000Y-118110000D03*
X167845000Y-116840000D03*
X167845000Y-115570000D03*
X167845000Y-114300000D03*
X167845000Y-113030000D03*
X167845000Y-111760000D03*
X167845000Y-110490000D03*
X167845000Y-109220000D03*
D16*
X142494000Y-113157000D03*
X142494000Y-120523000D03*
D11*
X155829000Y-112903000D03*
X160121600Y-120243600D03*
X160121600Y-113487200D03*
X160020000Y-110490000D03*
X169481500Y-118237000D03*
X166243000Y-113030000D03*
X166243000Y-110490000D03*
X170180000Y-108585000D03*
X163576000Y-108902500D03*
X161798000Y-107696000D03*
X144145000Y-109220000D03*
X156718000Y-111760000D03*
X160147000Y-111760000D03*
D17*
X160121600Y-113487200D02*
X160121600Y-120243600D01*
X153464000Y-121920000D02*
X153384000Y-121840000D01*
X158545000Y-110490000D02*
X160020000Y-110490000D01*
X167845000Y-115570000D02*
X169214800Y-115570000D01*
X169481500Y-115836700D02*
X169481500Y-116840000D01*
X169214800Y-115570000D02*
X169481500Y-115836700D01*
X167845000Y-114300000D02*
X166420800Y-114300000D01*
X166243000Y-114122200D02*
X166243000Y-113030000D01*
X166420800Y-114300000D02*
X166243000Y-114122200D01*
X158545000Y-115570000D02*
X156972000Y-115570000D01*
X156972000Y-115570000D02*
X156718000Y-115824000D01*
X158545000Y-116840000D02*
X157035500Y-116840000D01*
X157035500Y-116840000D02*
X156718000Y-116522500D01*
X158545000Y-114300000D02*
X157162500Y-114300000D01*
X157226000Y-118110000D02*
X158545000Y-118110000D01*
X156718000Y-117602000D02*
X156781500Y-117665500D01*
X156781500Y-117665500D02*
X157226000Y-118110000D01*
X156718000Y-114744500D02*
X156718000Y-115824000D01*
X156718000Y-115824000D02*
X156718000Y-116522500D01*
X156718000Y-116522500D02*
X156718000Y-117602000D01*
X157162500Y-114300000D02*
X156718000Y-114744500D01*
X175665476Y-113220000D02*
X175894500Y-113220000D01*
X175894500Y-113220000D02*
X177038000Y-114363500D01*
X177038000Y-114363500D02*
X177038000Y-119253000D01*
X177038000Y-119253000D02*
X176720500Y-119570500D01*
X176720500Y-119570500D02*
X175006000Y-119570500D01*
X175006000Y-119570500D02*
X173735500Y-118300000D01*
X173735500Y-118300000D02*
X173125476Y-118300000D01*
X169481500Y-118237000D02*
X169481500Y-118110000D01*
X167845000Y-118110000D02*
X169481500Y-118110000D01*
X169481500Y-118110000D02*
X169481500Y-116840000D01*
X167845000Y-116840000D02*
X169481500Y-116840000D01*
X166243000Y-113030000D02*
X167845000Y-113030000D01*
D18*
X173125476Y-120840000D02*
X169720000Y-120840000D01*
X169720000Y-120840000D02*
X169275000Y-121285000D01*
X167275000Y-121285000D02*
X167275000Y-123047000D01*
X151463500Y-117840000D02*
X153384000Y-117840000D01*
X150749000Y-118554500D02*
X151463500Y-117840000D01*
X150749000Y-123126500D02*
X150749000Y-118554500D01*
X152019000Y-124396500D02*
X150749000Y-123126500D01*
X165925500Y-124396500D02*
X152019000Y-124396500D01*
X167275000Y-123047000D02*
X165925500Y-124396500D01*
X173125476Y-110680000D02*
X168035000Y-110680000D01*
X168035000Y-110680000D02*
X167845000Y-110490000D01*
X166243000Y-110490000D02*
X167845000Y-110490000D01*
X173125476Y-113220000D02*
X173125476Y-113132524D01*
X173125476Y-113132524D02*
X174371000Y-111887000D01*
X170497500Y-109474000D02*
X170180000Y-109156500D01*
X173863000Y-109474000D02*
X170497500Y-109474000D01*
X174371000Y-109982000D02*
X173863000Y-109474000D01*
X174371000Y-111887000D02*
X174371000Y-109982000D01*
X173125476Y-113220000D02*
X172465500Y-113220000D01*
X170180000Y-108585000D02*
X170180000Y-109029500D01*
X170180000Y-109029500D02*
X170180000Y-109156500D01*
X170180000Y-109156500D02*
X170180000Y-109220000D01*
X167845000Y-109220000D02*
X170180000Y-109220000D01*
X163576000Y-108902500D02*
X161861500Y-107696000D01*
X161861500Y-107696000D02*
X161798000Y-107696000D01*
X175665476Y-120840000D02*
X175665476Y-121514524D01*
X175665476Y-121514524D02*
X174688500Y-122491500D01*
X151066500Y-115824000D02*
X153368000Y-115824000D01*
X149987000Y-116903500D02*
X151066500Y-115824000D01*
X149987000Y-123317000D02*
X149987000Y-116903500D01*
X151701500Y-125031500D02*
X149987000Y-123317000D01*
X166243000Y-125031500D02*
X151701500Y-125031500D01*
X168148000Y-123126500D02*
X166243000Y-125031500D01*
X169926000Y-123126500D02*
X168148000Y-123126500D01*
X170561000Y-122491500D02*
X169926000Y-123126500D01*
X174688500Y-122491500D02*
X170561000Y-122491500D01*
X153368000Y-115824000D02*
X153384000Y-115840000D01*
X167845000Y-111760000D02*
X160147000Y-111760000D01*
X155257500Y-109220000D02*
X144145000Y-109220000D01*
X156464000Y-110426500D02*
X155257500Y-109220000D01*
X156464000Y-111506000D02*
X156464000Y-110426500D01*
X156718000Y-111760000D02*
X156464000Y-111506000D01*
D19*
G36*
X166075908Y-127052000D02*
X134060000Y-127052000D01*
X134060000Y-125095000D01*
X150690198Y-125095000D01*
X151164099Y-125568901D01*
X151410661Y-125733648D01*
X151701500Y-125791500D01*
X166243000Y-125791500D01*
X166533839Y-125733648D01*
X166780401Y-125568901D01*
X168462802Y-123886500D01*
X169241408Y-123886500D01*
X166075908Y-127052000D01*
X166075908Y-127052000D01*
G37*
X166075908Y-127052000D02*
X134060000Y-127052000D01*
X134060000Y-125095000D01*
X150690198Y-125095000D01*
X151164099Y-125568901D01*
X151410661Y-125733648D01*
X151701500Y-125791500D01*
X166243000Y-125791500D01*
X166533839Y-125733648D01*
X166780401Y-125568901D01*
X168462802Y-123886500D01*
X169241408Y-123886500D01*
X166075908Y-127052000D01*
G36*
X155704000Y-110741302D02*
X155704000Y-111506000D01*
X155761852Y-111796839D01*
X155782940Y-111828399D01*
X155782838Y-111945167D01*
X155924883Y-112288943D01*
X156187673Y-112552192D01*
X156531201Y-112694838D01*
X156903167Y-112695162D01*
X157177576Y-112581779D01*
X157147560Y-112730000D01*
X157147560Y-113330000D01*
X157191838Y-113565317D01*
X157250178Y-113655980D01*
X157160000Y-113873690D01*
X157160000Y-114014250D01*
X157318750Y-114173000D01*
X158418000Y-114173000D01*
X158418000Y-114153000D01*
X158672000Y-114153000D01*
X158672000Y-114173000D01*
X158692000Y-114173000D01*
X158692000Y-114427000D01*
X158672000Y-114427000D01*
X158672000Y-115443000D01*
X158692000Y-115443000D01*
X158692000Y-115697000D01*
X158672000Y-115697000D01*
X158672000Y-116713000D01*
X158692000Y-116713000D01*
X158692000Y-116967000D01*
X158672000Y-116967000D01*
X158672000Y-117983000D01*
X158692000Y-117983000D01*
X158692000Y-118237000D01*
X158672000Y-118237000D01*
X158672000Y-118886250D01*
X158830750Y-119045000D01*
X159336600Y-119045000D01*
X159336600Y-119706094D01*
X159329408Y-119713273D01*
X159186762Y-120056801D01*
X159186438Y-120428767D01*
X159328483Y-120772543D01*
X159591273Y-121035792D01*
X159934801Y-121178438D01*
X160306767Y-121178762D01*
X160650543Y-121036717D01*
X160913792Y-120773927D01*
X161056438Y-120430399D01*
X161056762Y-120058433D01*
X160914717Y-119714657D01*
X160906600Y-119706526D01*
X160906600Y-118395750D01*
X166460000Y-118395750D01*
X166460000Y-118536310D01*
X166556673Y-118769699D01*
X166735302Y-118948327D01*
X166968691Y-119045000D01*
X167559250Y-119045000D01*
X167718000Y-118886250D01*
X167718000Y-118237000D01*
X167972000Y-118237000D01*
X167972000Y-118886250D01*
X168130750Y-119045000D01*
X168721309Y-119045000D01*
X168954698Y-118948327D01*
X169133327Y-118769699D01*
X169230000Y-118536310D01*
X169230000Y-118395750D01*
X169071250Y-118237000D01*
X167972000Y-118237000D01*
X167718000Y-118237000D01*
X166618750Y-118237000D01*
X166460000Y-118395750D01*
X160906600Y-118395750D01*
X160906600Y-117125750D01*
X166460000Y-117125750D01*
X166460000Y-117266310D01*
X166546442Y-117475000D01*
X166460000Y-117683690D01*
X166460000Y-117824250D01*
X166618750Y-117983000D01*
X167718000Y-117983000D01*
X167718000Y-116967000D01*
X167972000Y-116967000D01*
X167972000Y-117983000D01*
X169071250Y-117983000D01*
X169230000Y-117824250D01*
X169230000Y-117683690D01*
X169143558Y-117475000D01*
X169230000Y-117266310D01*
X169230000Y-117125750D01*
X169071250Y-116967000D01*
X167972000Y-116967000D01*
X167718000Y-116967000D01*
X166618750Y-116967000D01*
X166460000Y-117125750D01*
X160906600Y-117125750D01*
X160906600Y-115855750D01*
X166460000Y-115855750D01*
X166460000Y-115996310D01*
X166546442Y-116205000D01*
X166460000Y-116413690D01*
X166460000Y-116554250D01*
X166618750Y-116713000D01*
X167718000Y-116713000D01*
X167718000Y-115697000D01*
X167972000Y-115697000D01*
X167972000Y-116713000D01*
X169071250Y-116713000D01*
X169230000Y-116554250D01*
X169230000Y-116413690D01*
X169143558Y-116205000D01*
X169230000Y-115996310D01*
X169230000Y-115855750D01*
X169071250Y-115697000D01*
X167972000Y-115697000D01*
X167718000Y-115697000D01*
X166618750Y-115697000D01*
X166460000Y-115855750D01*
X160906600Y-115855750D01*
X160906600Y-114585750D01*
X166460000Y-114585750D01*
X166460000Y-114726310D01*
X166546442Y-114935000D01*
X166460000Y-115143690D01*
X166460000Y-115284250D01*
X166618750Y-115443000D01*
X167718000Y-115443000D01*
X167718000Y-114427000D01*
X167972000Y-114427000D01*
X167972000Y-115443000D01*
X169071250Y-115443000D01*
X169230000Y-115284250D01*
X169230000Y-115143690D01*
X169143558Y-114935000D01*
X169230000Y-114726310D01*
X169230000Y-114585750D01*
X169071250Y-114427000D01*
X167972000Y-114427000D01*
X167718000Y-114427000D01*
X166618750Y-114427000D01*
X166460000Y-114585750D01*
X160906600Y-114585750D01*
X160906600Y-114024706D01*
X160913792Y-114017527D01*
X161056438Y-113673999D01*
X161056750Y-113315750D01*
X166460000Y-113315750D01*
X166460000Y-113456310D01*
X166546442Y-113665000D01*
X166460000Y-113873690D01*
X166460000Y-114014250D01*
X166618750Y-114173000D01*
X167718000Y-114173000D01*
X167718000Y-113157000D01*
X167972000Y-113157000D01*
X167972000Y-114173000D01*
X169071250Y-114173000D01*
X169230000Y-114014250D01*
X169230000Y-113873690D01*
X169143558Y-113665000D01*
X169230000Y-113456310D01*
X169230000Y-113315750D01*
X169071250Y-113157000D01*
X167972000Y-113157000D01*
X167718000Y-113157000D01*
X166618750Y-113157000D01*
X166460000Y-113315750D01*
X161056750Y-113315750D01*
X161056762Y-113302033D01*
X160914717Y-112958257D01*
X160651927Y-112695008D01*
X160492628Y-112628861D01*
X160675943Y-112553117D01*
X160709118Y-112520000D01*
X166494666Y-112520000D01*
X166460000Y-112603690D01*
X166460000Y-112744250D01*
X166618750Y-112903000D01*
X167718000Y-112903000D01*
X167718000Y-112883000D01*
X167972000Y-112883000D01*
X167972000Y-112903000D01*
X169071250Y-112903000D01*
X169230000Y-112744250D01*
X169230000Y-112603690D01*
X169140194Y-112386878D01*
X169191431Y-112311890D01*
X169242440Y-112060000D01*
X169242440Y-111460000D01*
X169238677Y-111440000D01*
X171852522Y-111440000D01*
X172046329Y-111730054D01*
X172375502Y-111950000D01*
X172046329Y-112169946D01*
X171724422Y-112651715D01*
X171611383Y-113220000D01*
X171724422Y-113788285D01*
X172046329Y-114270054D01*
X172375502Y-114490000D01*
X172046329Y-114709946D01*
X171724422Y-115191715D01*
X171611383Y-115760000D01*
X171724422Y-116328285D01*
X172046329Y-116810054D01*
X172387029Y-117037702D01*
X172244118Y-117104817D01*
X171853831Y-117533076D01*
X171684000Y-117943110D01*
X171805321Y-118173000D01*
X172998476Y-118173000D01*
X172998476Y-118153000D01*
X173252476Y-118153000D01*
X173252476Y-118173000D01*
X173272476Y-118173000D01*
X173272476Y-118427000D01*
X173252476Y-118427000D01*
X173252476Y-118447000D01*
X172998476Y-118447000D01*
X172998476Y-118427000D01*
X171805321Y-118427000D01*
X171684000Y-118656890D01*
X171853831Y-119066924D01*
X172244118Y-119495183D01*
X172387029Y-119562298D01*
X172046329Y-119789946D01*
X171852522Y-120080000D01*
X170081492Y-120080000D01*
X168691821Y-119709421D01*
X168542887Y-119687807D01*
X168289683Y-119731838D01*
X168265958Y-119747105D01*
X168114707Y-119693805D01*
X167858179Y-119709421D01*
X166358179Y-120109421D01*
X166073559Y-120270910D01*
X165928569Y-120483110D01*
X165877560Y-120735000D01*
X165877560Y-121835000D01*
X165960261Y-122151619D01*
X166127937Y-122346390D01*
X166358179Y-122460579D01*
X166515000Y-122502398D01*
X166515000Y-122732198D01*
X165610698Y-123636500D01*
X152333802Y-123636500D01*
X151509000Y-122811698D01*
X151509000Y-122178447D01*
X151548019Y-122374609D01*
X151850851Y-122827828D01*
X152304070Y-123130660D01*
X152838679Y-123237000D01*
X153929321Y-123237000D01*
X154463930Y-123130660D01*
X154917149Y-122827828D01*
X155219981Y-122374609D01*
X155326321Y-121840000D01*
X155219981Y-121305391D01*
X154917149Y-120852172D01*
X154868562Y-120819707D01*
X154969630Y-120738026D01*
X155231260Y-120257277D01*
X155246220Y-120183070D01*
X155123720Y-119967000D01*
X153511000Y-119967000D01*
X153511000Y-119987000D01*
X153257000Y-119987000D01*
X153257000Y-119967000D01*
X153237000Y-119967000D01*
X153237000Y-119713000D01*
X153257000Y-119713000D01*
X153257000Y-119693000D01*
X153511000Y-119693000D01*
X153511000Y-119713000D01*
X155123720Y-119713000D01*
X155246220Y-119496930D01*
X155231260Y-119422723D01*
X154969630Y-118941974D01*
X154868562Y-118860293D01*
X154917149Y-118827828D01*
X155205855Y-118395750D01*
X157160000Y-118395750D01*
X157160000Y-118536310D01*
X157256673Y-118769699D01*
X157435302Y-118948327D01*
X157668691Y-119045000D01*
X158259250Y-119045000D01*
X158418000Y-118886250D01*
X158418000Y-118237000D01*
X157318750Y-118237000D01*
X157160000Y-118395750D01*
X155205855Y-118395750D01*
X155219981Y-118374609D01*
X155326321Y-117840000D01*
X155219981Y-117305391D01*
X155099949Y-117125750D01*
X157160000Y-117125750D01*
X157160000Y-117266310D01*
X157246442Y-117475000D01*
X157160000Y-117683690D01*
X157160000Y-117824250D01*
X157318750Y-117983000D01*
X158418000Y-117983000D01*
X158418000Y-116967000D01*
X157318750Y-116967000D01*
X157160000Y-117125750D01*
X155099949Y-117125750D01*
X154917149Y-116852172D01*
X154898932Y-116840000D01*
X154917149Y-116827828D01*
X155219981Y-116374609D01*
X155323188Y-115855750D01*
X157160000Y-115855750D01*
X157160000Y-115996310D01*
X157246442Y-116205000D01*
X157160000Y-116413690D01*
X157160000Y-116554250D01*
X157318750Y-116713000D01*
X158418000Y-116713000D01*
X158418000Y-115697000D01*
X157318750Y-115697000D01*
X157160000Y-115855750D01*
X155323188Y-115855750D01*
X155326321Y-115840000D01*
X155219981Y-115305391D01*
X154917149Y-114852172D01*
X154898932Y-114840000D01*
X154917149Y-114827828D01*
X155078900Y-114585750D01*
X157160000Y-114585750D01*
X157160000Y-114726310D01*
X157246442Y-114935000D01*
X157160000Y-115143690D01*
X157160000Y-115284250D01*
X157318750Y-115443000D01*
X158418000Y-115443000D01*
X158418000Y-114427000D01*
X157318750Y-114427000D01*
X157160000Y-114585750D01*
X155078900Y-114585750D01*
X155219981Y-114374609D01*
X155326321Y-113840000D01*
X155219981Y-113305391D01*
X154917149Y-112852172D01*
X154898932Y-112840000D01*
X154917149Y-112827828D01*
X155219981Y-112374609D01*
X155326321Y-111840000D01*
X155219981Y-111305391D01*
X154917149Y-110852172D01*
X154463930Y-110549340D01*
X153929321Y-110443000D01*
X152838679Y-110443000D01*
X152304070Y-110549340D01*
X151850851Y-110852172D01*
X151548019Y-111305391D01*
X151441679Y-111840000D01*
X151548019Y-112374609D01*
X151850851Y-112827828D01*
X151869068Y-112840000D01*
X151850851Y-112852172D01*
X151548019Y-113305391D01*
X151441679Y-113840000D01*
X151548019Y-114374609D01*
X151850851Y-114827828D01*
X151869068Y-114840000D01*
X151850851Y-114852172D01*
X151709312Y-115064000D01*
X151433629Y-115064000D01*
X151393910Y-109980000D01*
X154942698Y-109980000D01*
X155704000Y-110741302D01*
X155704000Y-110741302D01*
G37*
X155704000Y-110741302D02*
X155704000Y-111506000D01*
X155761852Y-111796839D01*
X155782940Y-111828399D01*
X155782838Y-111945167D01*
X155924883Y-112288943D01*
X156187673Y-112552192D01*
X156531201Y-112694838D01*
X156903167Y-112695162D01*
X157177576Y-112581779D01*
X157147560Y-112730000D01*
X157147560Y-113330000D01*
X157191838Y-113565317D01*
X157250178Y-113655980D01*
X157160000Y-113873690D01*
X157160000Y-114014250D01*
X157318750Y-114173000D01*
X158418000Y-114173000D01*
X158418000Y-114153000D01*
X158672000Y-114153000D01*
X158672000Y-114173000D01*
X158692000Y-114173000D01*
X158692000Y-114427000D01*
X158672000Y-114427000D01*
X158672000Y-115443000D01*
X158692000Y-115443000D01*
X158692000Y-115697000D01*
X158672000Y-115697000D01*
X158672000Y-116713000D01*
X158692000Y-116713000D01*
X158692000Y-116967000D01*
X158672000Y-116967000D01*
X158672000Y-117983000D01*
X158692000Y-117983000D01*
X158692000Y-118237000D01*
X158672000Y-118237000D01*
X158672000Y-118886250D01*
X158830750Y-119045000D01*
X159336600Y-119045000D01*
X159336600Y-119706094D01*
X159329408Y-119713273D01*
X159186762Y-120056801D01*
X159186438Y-120428767D01*
X159328483Y-120772543D01*
X159591273Y-121035792D01*
X159934801Y-121178438D01*
X160306767Y-121178762D01*
X160650543Y-121036717D01*
X160913792Y-120773927D01*
X161056438Y-120430399D01*
X161056762Y-120058433D01*
X160914717Y-119714657D01*
X160906600Y-119706526D01*
X160906600Y-118395750D01*
X166460000Y-118395750D01*
X166460000Y-118536310D01*
X166556673Y-118769699D01*
X166735302Y-118948327D01*
X166968691Y-119045000D01*
X167559250Y-119045000D01*
X167718000Y-118886250D01*
X167718000Y-118237000D01*
X167972000Y-118237000D01*
X167972000Y-118886250D01*
X168130750Y-119045000D01*
X168721309Y-119045000D01*
X168954698Y-118948327D01*
X169133327Y-118769699D01*
X169230000Y-118536310D01*
X169230000Y-118395750D01*
X169071250Y-118237000D01*
X167972000Y-118237000D01*
X167718000Y-118237000D01*
X166618750Y-118237000D01*
X166460000Y-118395750D01*
X160906600Y-118395750D01*
X160906600Y-117125750D01*
X166460000Y-117125750D01*
X166460000Y-117266310D01*
X166546442Y-117475000D01*
X166460000Y-117683690D01*
X166460000Y-117824250D01*
X166618750Y-117983000D01*
X167718000Y-117983000D01*
X167718000Y-116967000D01*
X167972000Y-116967000D01*
X167972000Y-117983000D01*
X169071250Y-117983000D01*
X169230000Y-117824250D01*
X169230000Y-117683690D01*
X169143558Y-117475000D01*
X169230000Y-117266310D01*
X169230000Y-117125750D01*
X169071250Y-116967000D01*
X167972000Y-116967000D01*
X167718000Y-116967000D01*
X166618750Y-116967000D01*
X166460000Y-117125750D01*
X160906600Y-117125750D01*
X160906600Y-115855750D01*
X166460000Y-115855750D01*
X166460000Y-115996310D01*
X166546442Y-116205000D01*
X166460000Y-116413690D01*
X166460000Y-116554250D01*
X166618750Y-116713000D01*
X167718000Y-116713000D01*
X167718000Y-115697000D01*
X167972000Y-115697000D01*
X167972000Y-116713000D01*
X169071250Y-116713000D01*
X169230000Y-116554250D01*
X169230000Y-116413690D01*
X169143558Y-116205000D01*
X169230000Y-115996310D01*
X169230000Y-115855750D01*
X169071250Y-115697000D01*
X167972000Y-115697000D01*
X167718000Y-115697000D01*
X166618750Y-115697000D01*
X166460000Y-115855750D01*
X160906600Y-115855750D01*
X160906600Y-114585750D01*
X166460000Y-114585750D01*
X166460000Y-114726310D01*
X166546442Y-114935000D01*
X166460000Y-115143690D01*
X166460000Y-115284250D01*
X166618750Y-115443000D01*
X167718000Y-115443000D01*
X167718000Y-114427000D01*
X167972000Y-114427000D01*
X167972000Y-115443000D01*
X169071250Y-115443000D01*
X169230000Y-115284250D01*
X169230000Y-115143690D01*
X169143558Y-114935000D01*
X169230000Y-114726310D01*
X169230000Y-114585750D01*
X169071250Y-114427000D01*
X167972000Y-114427000D01*
X167718000Y-114427000D01*
X166618750Y-114427000D01*
X166460000Y-114585750D01*
X160906600Y-114585750D01*
X160906600Y-114024706D01*
X160913792Y-114017527D01*
X161056438Y-113673999D01*
X161056750Y-113315750D01*
X166460000Y-113315750D01*
X166460000Y-113456310D01*
X166546442Y-113665000D01*
X166460000Y-113873690D01*
X166460000Y-114014250D01*
X166618750Y-114173000D01*
X167718000Y-114173000D01*
X167718000Y-113157000D01*
X167972000Y-113157000D01*
X167972000Y-114173000D01*
X169071250Y-114173000D01*
X169230000Y-114014250D01*
X169230000Y-113873690D01*
X169143558Y-113665000D01*
X169230000Y-113456310D01*
X169230000Y-113315750D01*
X169071250Y-113157000D01*
X167972000Y-113157000D01*
X167718000Y-113157000D01*
X166618750Y-113157000D01*
X166460000Y-113315750D01*
X161056750Y-113315750D01*
X161056762Y-113302033D01*
X160914717Y-112958257D01*
X160651927Y-112695008D01*
X160492628Y-112628861D01*
X160675943Y-112553117D01*
X160709118Y-112520000D01*
X166494666Y-112520000D01*
X166460000Y-112603690D01*
X166460000Y-112744250D01*
X166618750Y-112903000D01*
X167718000Y-112903000D01*
X167718000Y-112883000D01*
X167972000Y-112883000D01*
X167972000Y-112903000D01*
X169071250Y-112903000D01*
X169230000Y-112744250D01*
X169230000Y-112603690D01*
X169140194Y-112386878D01*
X169191431Y-112311890D01*
X169242440Y-112060000D01*
X169242440Y-111460000D01*
X169238677Y-111440000D01*
X171852522Y-111440000D01*
X172046329Y-111730054D01*
X172375502Y-111950000D01*
X172046329Y-112169946D01*
X171724422Y-112651715D01*
X171611383Y-113220000D01*
X171724422Y-113788285D01*
X172046329Y-114270054D01*
X172375502Y-114490000D01*
X172046329Y-114709946D01*
X171724422Y-115191715D01*
X171611383Y-115760000D01*
X171724422Y-116328285D01*
X172046329Y-116810054D01*
X172387029Y-117037702D01*
X172244118Y-117104817D01*
X171853831Y-117533076D01*
X171684000Y-117943110D01*
X171805321Y-118173000D01*
X172998476Y-118173000D01*
X172998476Y-118153000D01*
X173252476Y-118153000D01*
X173252476Y-118173000D01*
X173272476Y-118173000D01*
X173272476Y-118427000D01*
X173252476Y-118427000D01*
X173252476Y-118447000D01*
X172998476Y-118447000D01*
X172998476Y-118427000D01*
X171805321Y-118427000D01*
X171684000Y-118656890D01*
X171853831Y-119066924D01*
X172244118Y-119495183D01*
X172387029Y-119562298D01*
X172046329Y-119789946D01*
X171852522Y-120080000D01*
X170081492Y-120080000D01*
X168691821Y-119709421D01*
X168542887Y-119687807D01*
X168289683Y-119731838D01*
X168265958Y-119747105D01*
X168114707Y-119693805D01*
X167858179Y-119709421D01*
X166358179Y-120109421D01*
X166073559Y-120270910D01*
X165928569Y-120483110D01*
X165877560Y-120735000D01*
X165877560Y-121835000D01*
X165960261Y-122151619D01*
X166127937Y-122346390D01*
X166358179Y-122460579D01*
X166515000Y-122502398D01*
X166515000Y-122732198D01*
X165610698Y-123636500D01*
X152333802Y-123636500D01*
X151509000Y-122811698D01*
X151509000Y-122178447D01*
X151548019Y-122374609D01*
X151850851Y-122827828D01*
X152304070Y-123130660D01*
X152838679Y-123237000D01*
X153929321Y-123237000D01*
X154463930Y-123130660D01*
X154917149Y-122827828D01*
X155219981Y-122374609D01*
X155326321Y-121840000D01*
X155219981Y-121305391D01*
X154917149Y-120852172D01*
X154868562Y-120819707D01*
X154969630Y-120738026D01*
X155231260Y-120257277D01*
X155246220Y-120183070D01*
X155123720Y-119967000D01*
X153511000Y-119967000D01*
X153511000Y-119987000D01*
X153257000Y-119987000D01*
X153257000Y-119967000D01*
X153237000Y-119967000D01*
X153237000Y-119713000D01*
X153257000Y-119713000D01*
X153257000Y-119693000D01*
X153511000Y-119693000D01*
X153511000Y-119713000D01*
X155123720Y-119713000D01*
X155246220Y-119496930D01*
X155231260Y-119422723D01*
X154969630Y-118941974D01*
X154868562Y-118860293D01*
X154917149Y-118827828D01*
X155205855Y-118395750D01*
X157160000Y-118395750D01*
X157160000Y-118536310D01*
X157256673Y-118769699D01*
X157435302Y-118948327D01*
X157668691Y-119045000D01*
X158259250Y-119045000D01*
X158418000Y-118886250D01*
X158418000Y-118237000D01*
X157318750Y-118237000D01*
X157160000Y-118395750D01*
X155205855Y-118395750D01*
X155219981Y-118374609D01*
X155326321Y-117840000D01*
X155219981Y-117305391D01*
X155099949Y-117125750D01*
X157160000Y-117125750D01*
X157160000Y-117266310D01*
X157246442Y-117475000D01*
X157160000Y-117683690D01*
X157160000Y-117824250D01*
X157318750Y-117983000D01*
X158418000Y-117983000D01*
X158418000Y-116967000D01*
X157318750Y-116967000D01*
X157160000Y-117125750D01*
X155099949Y-117125750D01*
X154917149Y-116852172D01*
X154898932Y-116840000D01*
X154917149Y-116827828D01*
X155219981Y-116374609D01*
X155323188Y-115855750D01*
X157160000Y-115855750D01*
X157160000Y-115996310D01*
X157246442Y-116205000D01*
X157160000Y-116413690D01*
X157160000Y-116554250D01*
X157318750Y-116713000D01*
X158418000Y-116713000D01*
X158418000Y-115697000D01*
X157318750Y-115697000D01*
X157160000Y-115855750D01*
X155323188Y-115855750D01*
X155326321Y-115840000D01*
X155219981Y-115305391D01*
X154917149Y-114852172D01*
X154898932Y-114840000D01*
X154917149Y-114827828D01*
X155078900Y-114585750D01*
X157160000Y-114585750D01*
X157160000Y-114726310D01*
X157246442Y-114935000D01*
X157160000Y-115143690D01*
X157160000Y-115284250D01*
X157318750Y-115443000D01*
X158418000Y-115443000D01*
X158418000Y-114427000D01*
X157318750Y-114427000D01*
X157160000Y-114585750D01*
X155078900Y-114585750D01*
X155219981Y-114374609D01*
X155326321Y-113840000D01*
X155219981Y-113305391D01*
X154917149Y-112852172D01*
X154898932Y-112840000D01*
X154917149Y-112827828D01*
X155219981Y-112374609D01*
X155326321Y-111840000D01*
X155219981Y-111305391D01*
X154917149Y-110852172D01*
X154463930Y-110549340D01*
X153929321Y-110443000D01*
X152838679Y-110443000D01*
X152304070Y-110549340D01*
X151850851Y-110852172D01*
X151548019Y-111305391D01*
X151441679Y-111840000D01*
X151548019Y-112374609D01*
X151850851Y-112827828D01*
X151869068Y-112840000D01*
X151850851Y-112852172D01*
X151548019Y-113305391D01*
X151441679Y-113840000D01*
X151548019Y-114374609D01*
X151850851Y-114827828D01*
X151869068Y-114840000D01*
X151850851Y-114852172D01*
X151709312Y-115064000D01*
X151433629Y-115064000D01*
X151393910Y-109980000D01*
X154942698Y-109980000D01*
X155704000Y-110741302D01*
G36*
X177090000Y-120389707D02*
X177066530Y-120271715D01*
X176744623Y-119789946D01*
X176415450Y-119570000D01*
X176744623Y-119350054D01*
X177066530Y-118868285D01*
X177090000Y-118750293D01*
X177090000Y-120389707D01*
X177090000Y-120389707D01*
G37*
X177090000Y-120389707D02*
X177066530Y-120271715D01*
X176744623Y-119789946D01*
X176415450Y-119570000D01*
X176744623Y-119350054D01*
X177066530Y-118868285D01*
X177090000Y-118750293D01*
X177090000Y-120389707D01*
G36*
X177090000Y-115309707D02*
X177066530Y-115191715D01*
X176744623Y-114709946D01*
X176403923Y-114482298D01*
X176546834Y-114415183D01*
X176937121Y-113986924D01*
X177090000Y-113617818D01*
X177090000Y-115309707D01*
X177090000Y-115309707D01*
G37*
X177090000Y-115309707D02*
X177066530Y-115191715D01*
X176744623Y-114709946D01*
X176403923Y-114482298D01*
X176546834Y-114415183D01*
X176937121Y-113986924D01*
X177090000Y-113617818D01*
X177090000Y-115309707D01*
G36*
X175792476Y-113093000D02*
X175812476Y-113093000D01*
X175812476Y-113347000D01*
X175792476Y-113347000D01*
X175792476Y-113367000D01*
X175538476Y-113367000D01*
X175538476Y-113347000D01*
X175518476Y-113347000D01*
X175518476Y-113093000D01*
X175538476Y-113093000D01*
X175538476Y-113073000D01*
X175792476Y-113073000D01*
X175792476Y-113093000D01*
X175792476Y-113093000D01*
G37*
X175792476Y-113093000D02*
X175812476Y-113093000D01*
X175812476Y-113347000D01*
X175792476Y-113347000D01*
X175792476Y-113367000D01*
X175538476Y-113367000D01*
X175538476Y-113347000D01*
X175518476Y-113347000D01*
X175518476Y-113093000D01*
X175538476Y-113093000D01*
X175538476Y-113073000D01*
X175792476Y-113073000D01*
X175792476Y-113093000D01*
G36*
X177090000Y-107689707D02*
X177066530Y-107571715D01*
X176744623Y-107089946D01*
X176262854Y-106768039D01*
X175694569Y-106655000D01*
X175636383Y-106655000D01*
X175068098Y-106768039D01*
X174586329Y-107089946D01*
X174585505Y-107091179D01*
X174578638Y-107054683D01*
X174439566Y-106838559D01*
X174227366Y-106693569D01*
X173975476Y-106642560D01*
X172275476Y-106642560D01*
X172040159Y-106686838D01*
X171824035Y-106825910D01*
X171679045Y-107038110D01*
X171628036Y-107290000D01*
X171628036Y-108714000D01*
X171114888Y-108714000D01*
X171115162Y-108399833D01*
X170973117Y-108056057D01*
X170710327Y-107792808D01*
X170366799Y-107650162D01*
X169994833Y-107649838D01*
X169651057Y-107791883D01*
X169387808Y-108054673D01*
X169245162Y-108398201D01*
X169245108Y-108460000D01*
X169046563Y-108460000D01*
X168846890Y-108323569D01*
X168595000Y-108272560D01*
X167095000Y-108272560D01*
X166859683Y-108316838D01*
X166643559Y-108455910D01*
X166498569Y-108668110D01*
X166447560Y-108920000D01*
X166447560Y-109520000D01*
X166456242Y-109566142D01*
X166429799Y-109555162D01*
X166057833Y-109554838D01*
X165714057Y-109696883D01*
X165450808Y-109959673D01*
X165308162Y-110303201D01*
X165307838Y-110675167D01*
X165442056Y-111000000D01*
X160820633Y-111000000D01*
X160954838Y-110676799D01*
X160955162Y-110304833D01*
X160813117Y-109961057D01*
X160550327Y-109697808D01*
X160206799Y-109555162D01*
X159935367Y-109554926D01*
X159942440Y-109520000D01*
X159942440Y-108920000D01*
X159898162Y-108684683D01*
X159759090Y-108468559D01*
X159546890Y-108323569D01*
X159295000Y-108272560D01*
X157795000Y-108272560D01*
X157559683Y-108316838D01*
X157343559Y-108455910D01*
X157198569Y-108668110D01*
X157147560Y-108920000D01*
X157147560Y-109520000D01*
X157191838Y-109755317D01*
X157255678Y-109854528D01*
X157198569Y-109938110D01*
X157160328Y-110126950D01*
X157001401Y-109889099D01*
X155794901Y-108682599D01*
X155548339Y-108517852D01*
X155257500Y-108460000D01*
X144707463Y-108460000D01*
X144675327Y-108427808D01*
X144331799Y-108285162D01*
X143959833Y-108284838D01*
X143616057Y-108426883D01*
X143457664Y-108585000D01*
X134060000Y-108585000D01*
X134060000Y-107881167D01*
X160862838Y-107881167D01*
X161004883Y-108224943D01*
X161267673Y-108488192D01*
X161611201Y-108630838D01*
X161869668Y-108631063D01*
X162690982Y-109209025D01*
X162782883Y-109431443D01*
X163045673Y-109694692D01*
X163389201Y-109837338D01*
X163761167Y-109837662D01*
X164104943Y-109695617D01*
X164368192Y-109432827D01*
X164510838Y-109089299D01*
X164511162Y-108717333D01*
X164369117Y-108373557D01*
X164106327Y-108110308D01*
X163762799Y-107967662D01*
X163567911Y-107967492D01*
X162656985Y-107326470D01*
X162591117Y-107167057D01*
X162328327Y-106903808D01*
X161984799Y-106761162D01*
X161612833Y-106760838D01*
X161269057Y-106902883D01*
X161005808Y-107165673D01*
X160863162Y-107509201D01*
X160862838Y-107881167D01*
X134060000Y-107881167D01*
X134060000Y-106628000D01*
X177090000Y-106628000D01*
X177090000Y-107689707D01*
X177090000Y-107689707D01*
G37*
X177090000Y-107689707D02*
X177066530Y-107571715D01*
X176744623Y-107089946D01*
X176262854Y-106768039D01*
X175694569Y-106655000D01*
X175636383Y-106655000D01*
X175068098Y-106768039D01*
X174586329Y-107089946D01*
X174585505Y-107091179D01*
X174578638Y-107054683D01*
X174439566Y-106838559D01*
X174227366Y-106693569D01*
X173975476Y-106642560D01*
X172275476Y-106642560D01*
X172040159Y-106686838D01*
X171824035Y-106825910D01*
X171679045Y-107038110D01*
X171628036Y-107290000D01*
X171628036Y-108714000D01*
X171114888Y-108714000D01*
X171115162Y-108399833D01*
X170973117Y-108056057D01*
X170710327Y-107792808D01*
X170366799Y-107650162D01*
X169994833Y-107649838D01*
X169651057Y-107791883D01*
X169387808Y-108054673D01*
X169245162Y-108398201D01*
X169245108Y-108460000D01*
X169046563Y-108460000D01*
X168846890Y-108323569D01*
X168595000Y-108272560D01*
X167095000Y-108272560D01*
X166859683Y-108316838D01*
X166643559Y-108455910D01*
X166498569Y-108668110D01*
X166447560Y-108920000D01*
X166447560Y-109520000D01*
X166456242Y-109566142D01*
X166429799Y-109555162D01*
X166057833Y-109554838D01*
X165714057Y-109696883D01*
X165450808Y-109959673D01*
X165308162Y-110303201D01*
X165307838Y-110675167D01*
X165442056Y-111000000D01*
X160820633Y-111000000D01*
X160954838Y-110676799D01*
X160955162Y-110304833D01*
X160813117Y-109961057D01*
X160550327Y-109697808D01*
X160206799Y-109555162D01*
X159935367Y-109554926D01*
X159942440Y-109520000D01*
X159942440Y-108920000D01*
X159898162Y-108684683D01*
X159759090Y-108468559D01*
X159546890Y-108323569D01*
X159295000Y-108272560D01*
X157795000Y-108272560D01*
X157559683Y-108316838D01*
X157343559Y-108455910D01*
X157198569Y-108668110D01*
X157147560Y-108920000D01*
X157147560Y-109520000D01*
X157191838Y-109755317D01*
X157255678Y-109854528D01*
X157198569Y-109938110D01*
X157160328Y-110126950D01*
X157001401Y-109889099D01*
X155794901Y-108682599D01*
X155548339Y-108517852D01*
X155257500Y-108460000D01*
X144707463Y-108460000D01*
X144675327Y-108427808D01*
X144331799Y-108285162D01*
X143959833Y-108284838D01*
X143616057Y-108426883D01*
X143457664Y-108585000D01*
X134060000Y-108585000D01*
X134060000Y-107881167D01*
X160862838Y-107881167D01*
X161004883Y-108224943D01*
X161267673Y-108488192D01*
X161611201Y-108630838D01*
X161869668Y-108631063D01*
X162690982Y-109209025D01*
X162782883Y-109431443D01*
X163045673Y-109694692D01*
X163389201Y-109837338D01*
X163761167Y-109837662D01*
X164104943Y-109695617D01*
X164368192Y-109432827D01*
X164510838Y-109089299D01*
X164511162Y-108717333D01*
X164369117Y-108373557D01*
X164106327Y-108110308D01*
X163762799Y-107967662D01*
X163567911Y-107967492D01*
X162656985Y-107326470D01*
X162591117Y-107167057D01*
X162328327Y-106903808D01*
X161984799Y-106761162D01*
X161612833Y-106760838D01*
X161269057Y-106902883D01*
X161005808Y-107165673D01*
X160863162Y-107509201D01*
X160862838Y-107881167D01*
X134060000Y-107881167D01*
X134060000Y-106628000D01*
X177090000Y-106628000D01*
X177090000Y-107689707D01*
M02*
