G04 #@! TF.FileFunction,Copper,L2,Bot,Signal*
%FSLAX46Y46*%
G04 Gerber Fmt 4.6, Leading zero omitted, Abs format (unit mm)*
G04 Created by KiCad (PCBNEW 4.0.5-e0-6337~49~ubuntu14.04.1) date Sun Mar 12 14:50:38 2017*
%MOMM*%
%LPD*%
G01*
G04 APERTURE LIST*
%ADD10C,0.100000*%
%ADD11C,0.600000*%
%ADD12R,1.250000X1.500000*%
%ADD13R,1.500000X1.250000*%
%ADD14R,1.700000X1.700000*%
%ADD15O,1.700000X1.700000*%
%ADD16R,1.500000X1.300000*%
%ADD17O,2.540000X1.524000*%
%ADD18C,1.700000*%
%ADD19R,2.540000X4.500000*%
%ADD20R,3.200000X2.500000*%
%ADD21C,0.300000*%
%ADD22C,0.250000*%
%ADD23C,0.254000*%
G04 APERTURE END LIST*
D10*
D11*
X155829000Y-116713000D03*
X155829000Y-107188000D03*
X145542000Y-107188000D03*
X134747000Y-107188000D03*
X134747000Y-126492000D03*
X145669000Y-126492000D03*
X155956000Y-126492000D03*
X165989000Y-126492000D03*
X171259500Y-111887000D03*
X171259500Y-108648500D03*
X156400500Y-109093000D03*
X155003500Y-110299500D03*
D12*
X157226000Y-122408000D03*
X157226000Y-119908000D03*
D13*
X161945000Y-113030000D03*
X164445000Y-113030000D03*
D14*
X173125476Y-108140000D03*
D15*
X175665476Y-108140000D03*
X173125476Y-110680000D03*
X175665476Y-110680000D03*
X173125476Y-113220000D03*
X175665476Y-113220000D03*
X173125476Y-115760000D03*
X175665476Y-115760000D03*
X173125476Y-118300000D03*
X175665476Y-118300000D03*
X173125476Y-120840000D03*
X175665476Y-120840000D03*
D16*
X164545000Y-115570000D03*
X161845000Y-115570000D03*
X160735000Y-107950000D03*
X158035000Y-107950000D03*
X165655000Y-107950000D03*
X168355000Y-107950000D03*
X161845000Y-110490000D03*
X164545000Y-110490000D03*
D17*
X153384000Y-111840000D03*
X153384000Y-113840000D03*
X153384000Y-115840000D03*
X153384000Y-117840000D03*
X153384000Y-119840000D03*
X153384000Y-121840000D03*
D18*
X142494000Y-113157000D03*
X142494000Y-120523000D03*
D19*
X142494000Y-124460000D03*
X142494000Y-109220000D03*
D20*
X161108500Y-121856500D03*
X165408500Y-121856500D03*
D11*
X155829000Y-112903000D03*
X160121600Y-120243600D03*
X160121600Y-113487200D03*
X160020000Y-110490000D03*
X169481500Y-118237000D03*
X166243000Y-113030000D03*
X166243000Y-110490000D03*
X170180000Y-108585000D03*
X163576000Y-108902500D03*
X161798000Y-107696000D03*
X144145000Y-109220000D03*
X156718000Y-111760000D03*
X160147000Y-111760000D03*
D21*
X161945000Y-113030000D02*
X160578800Y-113030000D01*
X160121600Y-120243600D02*
X161108500Y-121230500D01*
X160578800Y-113030000D02*
X160121600Y-113487200D01*
X161108500Y-121230500D02*
X161108500Y-121856500D01*
X157226000Y-122408000D02*
X153952000Y-122408000D01*
X153952000Y-122408000D02*
X153384000Y-121840000D01*
X161108500Y-121856500D02*
X157777500Y-121856500D01*
X157777500Y-121856500D02*
X157226000Y-122408000D01*
D22*
X161108500Y-121856500D02*
X161108500Y-121040000D01*
D21*
X161092000Y-121840000D02*
X161108500Y-121856500D01*
X153464000Y-121920000D02*
X153384000Y-121840000D01*
X165655000Y-107950000D02*
X165655000Y-107395000D01*
X165655000Y-107395000D02*
X166370000Y-106680000D01*
X171665476Y-106680000D02*
X173125476Y-108140000D01*
X166370000Y-106680000D02*
X171665476Y-106680000D01*
X165655000Y-107950000D02*
X163195000Y-107950000D01*
X162560000Y-109775000D02*
X161845000Y-110490000D01*
X162560000Y-108585000D02*
X162560000Y-109775000D01*
X163195000Y-107950000D02*
X162560000Y-108585000D01*
X161845000Y-110490000D02*
X161845000Y-112930000D01*
X161845000Y-112930000D02*
X161945000Y-113030000D01*
X160020000Y-110490000D02*
X161845000Y-110490000D01*
D22*
X161845000Y-112930000D02*
X161945000Y-113030000D01*
D21*
X157226000Y-119908000D02*
X153452000Y-119908000D01*
X153452000Y-119908000D02*
X153384000Y-119840000D01*
X165408500Y-121856500D02*
X165862000Y-121856500D01*
X165862000Y-121856500D02*
X169481500Y-118237000D01*
X165408500Y-121856500D02*
X165408500Y-121149000D01*
X153384000Y-119840000D02*
X147114000Y-119840000D01*
X147114000Y-119840000D02*
X142494000Y-124460000D01*
X153432000Y-119888000D02*
X153384000Y-119840000D01*
X173125476Y-118300000D02*
X169544500Y-118300000D01*
X169544500Y-118300000D02*
X169481500Y-118237000D01*
X164445000Y-113030000D02*
X166243000Y-113030000D01*
D22*
X164545000Y-110490000D02*
X166243000Y-110490000D01*
X164735000Y-110680000D02*
X164545000Y-110490000D01*
X173125476Y-113220000D02*
X173165000Y-113220000D01*
X168355000Y-107950000D02*
X169545000Y-107950000D01*
X169545000Y-107950000D02*
X170180000Y-108585000D01*
X168355000Y-107950000D02*
X168355000Y-108030000D01*
X175665476Y-115760000D02*
X175665476Y-115657976D01*
X175665476Y-115657976D02*
X174498000Y-114490500D01*
X174498000Y-114490500D02*
X172212000Y-114490500D01*
X172212000Y-114490500D02*
X169481500Y-111760000D01*
X169481500Y-111760000D02*
X168529000Y-111760000D01*
X168529000Y-111760000D02*
X167640000Y-110871000D01*
X167640000Y-110871000D02*
X167640000Y-110172500D01*
X167640000Y-110172500D02*
X166560500Y-109093000D01*
X166560500Y-109093000D02*
X163766500Y-109093000D01*
X163766500Y-109093000D02*
X163576000Y-108902500D01*
X161798000Y-107696000D02*
X161480500Y-107950000D01*
X161480500Y-107950000D02*
X160735000Y-107950000D01*
X175665476Y-118300000D02*
X175665476Y-118134476D01*
X175665476Y-118134476D02*
X174561500Y-117030500D01*
X174561500Y-117030500D02*
X166941500Y-117030500D01*
X166941500Y-117030500D02*
X165481000Y-115570000D01*
X165481000Y-115570000D02*
X164545000Y-115570000D01*
X175665476Y-120840000D02*
X175450000Y-120840000D01*
X161845000Y-115570000D02*
X159004000Y-115570000D01*
X157274000Y-113840000D02*
X153384000Y-113840000D01*
X159004000Y-115570000D02*
X157274000Y-113840000D01*
X158035000Y-107950000D02*
X155194000Y-107950000D01*
X153384000Y-109760000D02*
X153384000Y-111840000D01*
X155194000Y-107950000D02*
X153384000Y-109760000D01*
X144145000Y-109220000D02*
X142494000Y-109220000D01*
X160147000Y-111760000D02*
X156718000Y-111760000D01*
D23*
G36*
X140627569Y-106718110D02*
X140576560Y-106970000D01*
X140576560Y-111470000D01*
X140620838Y-111705317D01*
X140759910Y-111921441D01*
X140972110Y-112066431D01*
X141224000Y-112117440D01*
X141433434Y-112117440D01*
X141235812Y-112314717D01*
X141009258Y-112860319D01*
X141008743Y-113451089D01*
X141234344Y-113997086D01*
X141651717Y-114415188D01*
X142197319Y-114641742D01*
X142788089Y-114642257D01*
X143334086Y-114416656D01*
X143752188Y-113999283D01*
X143978742Y-113453681D01*
X143979257Y-112862911D01*
X143753656Y-112316914D01*
X143554530Y-112117440D01*
X143764000Y-112117440D01*
X143999317Y-112073162D01*
X144215441Y-111934090D01*
X144360431Y-111721890D01*
X144411440Y-111470000D01*
X144411440Y-110121581D01*
X144673943Y-110013117D01*
X144937192Y-109750327D01*
X145079838Y-109406799D01*
X145080162Y-109034833D01*
X144938117Y-108691057D01*
X144675327Y-108427808D01*
X144411440Y-108318232D01*
X144411440Y-106970000D01*
X144367162Y-106734683D01*
X144298513Y-106628000D01*
X165311842Y-106628000D01*
X165287282Y-106652560D01*
X164905000Y-106652560D01*
X164669683Y-106696838D01*
X164453559Y-106835910D01*
X164308569Y-107048110D01*
X164284898Y-107165000D01*
X163195005Y-107165000D01*
X163195000Y-107164999D01*
X162894594Y-107224755D01*
X162675457Y-107371177D01*
X162591117Y-107167057D01*
X162328327Y-106903808D01*
X161984799Y-106761162D01*
X161820971Y-106761019D01*
X161736890Y-106703569D01*
X161485000Y-106652560D01*
X159985000Y-106652560D01*
X159749683Y-106696838D01*
X159533559Y-106835910D01*
X159388569Y-107048110D01*
X159385919Y-107061197D01*
X159249090Y-106848559D01*
X159036890Y-106703569D01*
X158785000Y-106652560D01*
X157285000Y-106652560D01*
X157049683Y-106696838D01*
X156833559Y-106835910D01*
X156688569Y-107048110D01*
X156659836Y-107190000D01*
X155194000Y-107190000D01*
X154903161Y-107247852D01*
X154656599Y-107412599D01*
X152846599Y-109222599D01*
X152681852Y-109469161D01*
X152624000Y-109760000D01*
X152624000Y-110485702D01*
X152304070Y-110549340D01*
X151850851Y-110852172D01*
X151548019Y-111305391D01*
X151441679Y-111840000D01*
X151548019Y-112374609D01*
X151850851Y-112827828D01*
X151869068Y-112840000D01*
X151850851Y-112852172D01*
X151548019Y-113305391D01*
X151441679Y-113840000D01*
X151548019Y-114374609D01*
X151850851Y-114827828D01*
X151869068Y-114840000D01*
X151850851Y-114852172D01*
X151548019Y-115305391D01*
X151441679Y-115840000D01*
X151548019Y-116374609D01*
X151850851Y-116827828D01*
X151869068Y-116840000D01*
X151850851Y-116852172D01*
X151548019Y-117305391D01*
X151441679Y-117840000D01*
X151548019Y-118374609D01*
X151850851Y-118827828D01*
X151899438Y-118860293D01*
X151798370Y-118941974D01*
X151536740Y-119422723D01*
X151521780Y-119496930D01*
X151644280Y-119713000D01*
X153257000Y-119713000D01*
X153257000Y-119693000D01*
X153511000Y-119693000D01*
X153511000Y-119713000D01*
X155123720Y-119713000D01*
X155246220Y-119496930D01*
X155231260Y-119422723D01*
X155018456Y-119031691D01*
X155966000Y-119031691D01*
X155966000Y-119622250D01*
X156124750Y-119781000D01*
X157099000Y-119781000D01*
X157099000Y-118681750D01*
X157353000Y-118681750D01*
X157353000Y-119781000D01*
X158327250Y-119781000D01*
X158486000Y-119622250D01*
X158486000Y-119031691D01*
X158389327Y-118798302D01*
X158210699Y-118619673D01*
X157977310Y-118523000D01*
X157511750Y-118523000D01*
X157353000Y-118681750D01*
X157099000Y-118681750D01*
X156940250Y-118523000D01*
X156474690Y-118523000D01*
X156241301Y-118619673D01*
X156062673Y-118798302D01*
X155966000Y-119031691D01*
X155018456Y-119031691D01*
X154969630Y-118941974D01*
X154868562Y-118860293D01*
X154917149Y-118827828D01*
X155219981Y-118374609D01*
X155326321Y-117840000D01*
X155219981Y-117305391D01*
X154917149Y-116852172D01*
X154898932Y-116840000D01*
X154917149Y-116827828D01*
X155219981Y-116374609D01*
X155326321Y-115840000D01*
X155219981Y-115305391D01*
X154917149Y-114852172D01*
X154898932Y-114840000D01*
X154917149Y-114827828D01*
X155069379Y-114600000D01*
X156959198Y-114600000D01*
X158466599Y-116107401D01*
X158713160Y-116272148D01*
X158761414Y-116281746D01*
X159004000Y-116330000D01*
X160468258Y-116330000D01*
X160491838Y-116455317D01*
X160630910Y-116671441D01*
X160843110Y-116816431D01*
X161095000Y-116867440D01*
X162595000Y-116867440D01*
X162830317Y-116823162D01*
X163046441Y-116684090D01*
X163191431Y-116471890D01*
X163194081Y-116458803D01*
X163330910Y-116671441D01*
X163543110Y-116816431D01*
X163795000Y-116867440D01*
X165295000Y-116867440D01*
X165530317Y-116823162D01*
X165608835Y-116772637D01*
X166404099Y-117567901D01*
X166650661Y-117732648D01*
X166941500Y-117790500D01*
X171747209Y-117790500D01*
X171684000Y-117943110D01*
X171805321Y-118173000D01*
X172998476Y-118173000D01*
X172998476Y-118153000D01*
X173252476Y-118153000D01*
X173252476Y-118173000D01*
X173272476Y-118173000D01*
X173272476Y-118427000D01*
X173252476Y-118427000D01*
X173252476Y-118447000D01*
X172998476Y-118447000D01*
X172998476Y-118427000D01*
X171805321Y-118427000D01*
X171684000Y-118656890D01*
X171853831Y-119066924D01*
X172244118Y-119495183D01*
X172387029Y-119562298D01*
X172046329Y-119789946D01*
X171724422Y-120271715D01*
X171611383Y-120840000D01*
X171724422Y-121408285D01*
X172046329Y-121890054D01*
X172528098Y-122211961D01*
X173096383Y-122325000D01*
X173154569Y-122325000D01*
X173722854Y-122211961D01*
X174204623Y-121890054D01*
X174395476Y-121604422D01*
X174586329Y-121890054D01*
X175068098Y-122211961D01*
X175636383Y-122325000D01*
X175694569Y-122325000D01*
X176262854Y-122211961D01*
X176744623Y-121890054D01*
X177066530Y-121408285D01*
X177090000Y-121290293D01*
X177090000Y-122480000D01*
X170942000Y-122480000D01*
X170670295Y-122534046D01*
X170439954Y-122687954D01*
X166075908Y-127052000D01*
X144309658Y-127052000D01*
X144399000Y-126836309D01*
X144399000Y-124745750D01*
X144240250Y-124587000D01*
X142621000Y-124587000D01*
X142621000Y-124607000D01*
X142367000Y-124607000D01*
X142367000Y-124587000D01*
X140747750Y-124587000D01*
X140589000Y-124745750D01*
X140589000Y-126836309D01*
X140678342Y-127052000D01*
X134060000Y-127052000D01*
X134060000Y-122083691D01*
X140589000Y-122083691D01*
X140589000Y-124174250D01*
X140747750Y-124333000D01*
X142367000Y-124333000D01*
X142367000Y-124313000D01*
X142621000Y-124313000D01*
X142621000Y-124333000D01*
X144240250Y-124333000D01*
X144399000Y-124174250D01*
X144399000Y-122083691D01*
X144302327Y-121850302D01*
X144292026Y-121840000D01*
X151441679Y-121840000D01*
X151548019Y-122374609D01*
X151850851Y-122827828D01*
X152304070Y-123130660D01*
X152838679Y-123237000D01*
X153929321Y-123237000D01*
X154150525Y-123193000D01*
X155960146Y-123193000D01*
X155997838Y-123393317D01*
X156136910Y-123609441D01*
X156349110Y-123754431D01*
X156601000Y-123805440D01*
X157851000Y-123805440D01*
X158086317Y-123761162D01*
X158302441Y-123622090D01*
X158447431Y-123409890D01*
X158498440Y-123158000D01*
X158498440Y-122641500D01*
X158861060Y-122641500D01*
X158861060Y-123106500D01*
X158905338Y-123341817D01*
X159044410Y-123557941D01*
X159256610Y-123702931D01*
X159508500Y-123753940D01*
X162708500Y-123753940D01*
X162943817Y-123709662D01*
X163159941Y-123570590D01*
X163255490Y-123430750D01*
X163270173Y-123466199D01*
X163448802Y-123644827D01*
X163682191Y-123741500D01*
X165122750Y-123741500D01*
X165281500Y-123582750D01*
X165281500Y-121983500D01*
X165535500Y-121983500D01*
X165535500Y-123582750D01*
X165694250Y-123741500D01*
X167134809Y-123741500D01*
X167368198Y-123644827D01*
X167546827Y-123466199D01*
X167643500Y-123232810D01*
X167643500Y-122142250D01*
X167484750Y-121983500D01*
X165535500Y-121983500D01*
X165281500Y-121983500D01*
X165261500Y-121983500D01*
X165261500Y-121729500D01*
X165281500Y-121729500D01*
X165281500Y-120130250D01*
X165535500Y-120130250D01*
X165535500Y-121729500D01*
X167484750Y-121729500D01*
X167643500Y-121570750D01*
X167643500Y-120480190D01*
X167546827Y-120246801D01*
X167368198Y-120068173D01*
X167134809Y-119971500D01*
X165694250Y-119971500D01*
X165535500Y-120130250D01*
X165281500Y-120130250D01*
X165122750Y-119971500D01*
X163682191Y-119971500D01*
X163448802Y-120068173D01*
X163270173Y-120246801D01*
X163255077Y-120283247D01*
X163172590Y-120155059D01*
X162960390Y-120010069D01*
X162708500Y-119959060D01*
X161015702Y-119959060D01*
X160914717Y-119714657D01*
X160651927Y-119451408D01*
X160308399Y-119308762D01*
X159936433Y-119308438D01*
X159592657Y-119450483D01*
X159329408Y-119713273D01*
X159186762Y-120056801D01*
X159186760Y-120058950D01*
X159057059Y-120142410D01*
X158912069Y-120354610D01*
X158861060Y-120606500D01*
X158861060Y-121071500D01*
X158335525Y-121071500D01*
X158389327Y-121017698D01*
X158486000Y-120784309D01*
X158486000Y-120193750D01*
X158327250Y-120035000D01*
X157353000Y-120035000D01*
X157353000Y-120055000D01*
X157099000Y-120055000D01*
X157099000Y-120035000D01*
X156124750Y-120035000D01*
X155966000Y-120193750D01*
X155966000Y-120784309D01*
X156062673Y-121017698D01*
X156203910Y-121158936D01*
X156149559Y-121193910D01*
X156004569Y-121406110D01*
X155960648Y-121623000D01*
X155283157Y-121623000D01*
X155219981Y-121305391D01*
X154917149Y-120852172D01*
X154868562Y-120819707D01*
X154969630Y-120738026D01*
X155231260Y-120257277D01*
X155246220Y-120183070D01*
X155123720Y-119967000D01*
X153511000Y-119967000D01*
X153511000Y-119987000D01*
X153257000Y-119987000D01*
X153257000Y-119967000D01*
X151644280Y-119967000D01*
X151521780Y-120183070D01*
X151536740Y-120257277D01*
X151798370Y-120738026D01*
X151899438Y-120819707D01*
X151850851Y-120852172D01*
X151548019Y-121305391D01*
X151441679Y-121840000D01*
X144292026Y-121840000D01*
X144123699Y-121671673D01*
X143890310Y-121575000D01*
X143542105Y-121575000D01*
X143752188Y-121365283D01*
X143978742Y-120819681D01*
X143979257Y-120228911D01*
X143753656Y-119682914D01*
X143336283Y-119264812D01*
X142790681Y-119038258D01*
X142199911Y-119037743D01*
X141653914Y-119263344D01*
X141235812Y-119680717D01*
X141009258Y-120226319D01*
X141008743Y-120817089D01*
X141234344Y-121363086D01*
X141445889Y-121575000D01*
X141097690Y-121575000D01*
X140864301Y-121671673D01*
X140685673Y-121850302D01*
X140589000Y-122083691D01*
X134060000Y-122083691D01*
X134060000Y-106628000D01*
X140689139Y-106628000D01*
X140627569Y-106718110D01*
X140627569Y-106718110D01*
G37*
X140627569Y-106718110D02*
X140576560Y-106970000D01*
X140576560Y-111470000D01*
X140620838Y-111705317D01*
X140759910Y-111921441D01*
X140972110Y-112066431D01*
X141224000Y-112117440D01*
X141433434Y-112117440D01*
X141235812Y-112314717D01*
X141009258Y-112860319D01*
X141008743Y-113451089D01*
X141234344Y-113997086D01*
X141651717Y-114415188D01*
X142197319Y-114641742D01*
X142788089Y-114642257D01*
X143334086Y-114416656D01*
X143752188Y-113999283D01*
X143978742Y-113453681D01*
X143979257Y-112862911D01*
X143753656Y-112316914D01*
X143554530Y-112117440D01*
X143764000Y-112117440D01*
X143999317Y-112073162D01*
X144215441Y-111934090D01*
X144360431Y-111721890D01*
X144411440Y-111470000D01*
X144411440Y-110121581D01*
X144673943Y-110013117D01*
X144937192Y-109750327D01*
X145079838Y-109406799D01*
X145080162Y-109034833D01*
X144938117Y-108691057D01*
X144675327Y-108427808D01*
X144411440Y-108318232D01*
X144411440Y-106970000D01*
X144367162Y-106734683D01*
X144298513Y-106628000D01*
X165311842Y-106628000D01*
X165287282Y-106652560D01*
X164905000Y-106652560D01*
X164669683Y-106696838D01*
X164453559Y-106835910D01*
X164308569Y-107048110D01*
X164284898Y-107165000D01*
X163195005Y-107165000D01*
X163195000Y-107164999D01*
X162894594Y-107224755D01*
X162675457Y-107371177D01*
X162591117Y-107167057D01*
X162328327Y-106903808D01*
X161984799Y-106761162D01*
X161820971Y-106761019D01*
X161736890Y-106703569D01*
X161485000Y-106652560D01*
X159985000Y-106652560D01*
X159749683Y-106696838D01*
X159533559Y-106835910D01*
X159388569Y-107048110D01*
X159385919Y-107061197D01*
X159249090Y-106848559D01*
X159036890Y-106703569D01*
X158785000Y-106652560D01*
X157285000Y-106652560D01*
X157049683Y-106696838D01*
X156833559Y-106835910D01*
X156688569Y-107048110D01*
X156659836Y-107190000D01*
X155194000Y-107190000D01*
X154903161Y-107247852D01*
X154656599Y-107412599D01*
X152846599Y-109222599D01*
X152681852Y-109469161D01*
X152624000Y-109760000D01*
X152624000Y-110485702D01*
X152304070Y-110549340D01*
X151850851Y-110852172D01*
X151548019Y-111305391D01*
X151441679Y-111840000D01*
X151548019Y-112374609D01*
X151850851Y-112827828D01*
X151869068Y-112840000D01*
X151850851Y-112852172D01*
X151548019Y-113305391D01*
X151441679Y-113840000D01*
X151548019Y-114374609D01*
X151850851Y-114827828D01*
X151869068Y-114840000D01*
X151850851Y-114852172D01*
X151548019Y-115305391D01*
X151441679Y-115840000D01*
X151548019Y-116374609D01*
X151850851Y-116827828D01*
X151869068Y-116840000D01*
X151850851Y-116852172D01*
X151548019Y-117305391D01*
X151441679Y-117840000D01*
X151548019Y-118374609D01*
X151850851Y-118827828D01*
X151899438Y-118860293D01*
X151798370Y-118941974D01*
X151536740Y-119422723D01*
X151521780Y-119496930D01*
X151644280Y-119713000D01*
X153257000Y-119713000D01*
X153257000Y-119693000D01*
X153511000Y-119693000D01*
X153511000Y-119713000D01*
X155123720Y-119713000D01*
X155246220Y-119496930D01*
X155231260Y-119422723D01*
X155018456Y-119031691D01*
X155966000Y-119031691D01*
X155966000Y-119622250D01*
X156124750Y-119781000D01*
X157099000Y-119781000D01*
X157099000Y-118681750D01*
X157353000Y-118681750D01*
X157353000Y-119781000D01*
X158327250Y-119781000D01*
X158486000Y-119622250D01*
X158486000Y-119031691D01*
X158389327Y-118798302D01*
X158210699Y-118619673D01*
X157977310Y-118523000D01*
X157511750Y-118523000D01*
X157353000Y-118681750D01*
X157099000Y-118681750D01*
X156940250Y-118523000D01*
X156474690Y-118523000D01*
X156241301Y-118619673D01*
X156062673Y-118798302D01*
X155966000Y-119031691D01*
X155018456Y-119031691D01*
X154969630Y-118941974D01*
X154868562Y-118860293D01*
X154917149Y-118827828D01*
X155219981Y-118374609D01*
X155326321Y-117840000D01*
X155219981Y-117305391D01*
X154917149Y-116852172D01*
X154898932Y-116840000D01*
X154917149Y-116827828D01*
X155219981Y-116374609D01*
X155326321Y-115840000D01*
X155219981Y-115305391D01*
X154917149Y-114852172D01*
X154898932Y-114840000D01*
X154917149Y-114827828D01*
X155069379Y-114600000D01*
X156959198Y-114600000D01*
X158466599Y-116107401D01*
X158713160Y-116272148D01*
X158761414Y-116281746D01*
X159004000Y-116330000D01*
X160468258Y-116330000D01*
X160491838Y-116455317D01*
X160630910Y-116671441D01*
X160843110Y-116816431D01*
X161095000Y-116867440D01*
X162595000Y-116867440D01*
X162830317Y-116823162D01*
X163046441Y-116684090D01*
X163191431Y-116471890D01*
X163194081Y-116458803D01*
X163330910Y-116671441D01*
X163543110Y-116816431D01*
X163795000Y-116867440D01*
X165295000Y-116867440D01*
X165530317Y-116823162D01*
X165608835Y-116772637D01*
X166404099Y-117567901D01*
X166650661Y-117732648D01*
X166941500Y-117790500D01*
X171747209Y-117790500D01*
X171684000Y-117943110D01*
X171805321Y-118173000D01*
X172998476Y-118173000D01*
X172998476Y-118153000D01*
X173252476Y-118153000D01*
X173252476Y-118173000D01*
X173272476Y-118173000D01*
X173272476Y-118427000D01*
X173252476Y-118427000D01*
X173252476Y-118447000D01*
X172998476Y-118447000D01*
X172998476Y-118427000D01*
X171805321Y-118427000D01*
X171684000Y-118656890D01*
X171853831Y-119066924D01*
X172244118Y-119495183D01*
X172387029Y-119562298D01*
X172046329Y-119789946D01*
X171724422Y-120271715D01*
X171611383Y-120840000D01*
X171724422Y-121408285D01*
X172046329Y-121890054D01*
X172528098Y-122211961D01*
X173096383Y-122325000D01*
X173154569Y-122325000D01*
X173722854Y-122211961D01*
X174204623Y-121890054D01*
X174395476Y-121604422D01*
X174586329Y-121890054D01*
X175068098Y-122211961D01*
X175636383Y-122325000D01*
X175694569Y-122325000D01*
X176262854Y-122211961D01*
X176744623Y-121890054D01*
X177066530Y-121408285D01*
X177090000Y-121290293D01*
X177090000Y-122480000D01*
X170942000Y-122480000D01*
X170670295Y-122534046D01*
X170439954Y-122687954D01*
X166075908Y-127052000D01*
X144309658Y-127052000D01*
X144399000Y-126836309D01*
X144399000Y-124745750D01*
X144240250Y-124587000D01*
X142621000Y-124587000D01*
X142621000Y-124607000D01*
X142367000Y-124607000D01*
X142367000Y-124587000D01*
X140747750Y-124587000D01*
X140589000Y-124745750D01*
X140589000Y-126836309D01*
X140678342Y-127052000D01*
X134060000Y-127052000D01*
X134060000Y-122083691D01*
X140589000Y-122083691D01*
X140589000Y-124174250D01*
X140747750Y-124333000D01*
X142367000Y-124333000D01*
X142367000Y-124313000D01*
X142621000Y-124313000D01*
X142621000Y-124333000D01*
X144240250Y-124333000D01*
X144399000Y-124174250D01*
X144399000Y-122083691D01*
X144302327Y-121850302D01*
X144292026Y-121840000D01*
X151441679Y-121840000D01*
X151548019Y-122374609D01*
X151850851Y-122827828D01*
X152304070Y-123130660D01*
X152838679Y-123237000D01*
X153929321Y-123237000D01*
X154150525Y-123193000D01*
X155960146Y-123193000D01*
X155997838Y-123393317D01*
X156136910Y-123609441D01*
X156349110Y-123754431D01*
X156601000Y-123805440D01*
X157851000Y-123805440D01*
X158086317Y-123761162D01*
X158302441Y-123622090D01*
X158447431Y-123409890D01*
X158498440Y-123158000D01*
X158498440Y-122641500D01*
X158861060Y-122641500D01*
X158861060Y-123106500D01*
X158905338Y-123341817D01*
X159044410Y-123557941D01*
X159256610Y-123702931D01*
X159508500Y-123753940D01*
X162708500Y-123753940D01*
X162943817Y-123709662D01*
X163159941Y-123570590D01*
X163255490Y-123430750D01*
X163270173Y-123466199D01*
X163448802Y-123644827D01*
X163682191Y-123741500D01*
X165122750Y-123741500D01*
X165281500Y-123582750D01*
X165281500Y-121983500D01*
X165535500Y-121983500D01*
X165535500Y-123582750D01*
X165694250Y-123741500D01*
X167134809Y-123741500D01*
X167368198Y-123644827D01*
X167546827Y-123466199D01*
X167643500Y-123232810D01*
X167643500Y-122142250D01*
X167484750Y-121983500D01*
X165535500Y-121983500D01*
X165281500Y-121983500D01*
X165261500Y-121983500D01*
X165261500Y-121729500D01*
X165281500Y-121729500D01*
X165281500Y-120130250D01*
X165535500Y-120130250D01*
X165535500Y-121729500D01*
X167484750Y-121729500D01*
X167643500Y-121570750D01*
X167643500Y-120480190D01*
X167546827Y-120246801D01*
X167368198Y-120068173D01*
X167134809Y-119971500D01*
X165694250Y-119971500D01*
X165535500Y-120130250D01*
X165281500Y-120130250D01*
X165122750Y-119971500D01*
X163682191Y-119971500D01*
X163448802Y-120068173D01*
X163270173Y-120246801D01*
X163255077Y-120283247D01*
X163172590Y-120155059D01*
X162960390Y-120010069D01*
X162708500Y-119959060D01*
X161015702Y-119959060D01*
X160914717Y-119714657D01*
X160651927Y-119451408D01*
X160308399Y-119308762D01*
X159936433Y-119308438D01*
X159592657Y-119450483D01*
X159329408Y-119713273D01*
X159186762Y-120056801D01*
X159186760Y-120058950D01*
X159057059Y-120142410D01*
X158912069Y-120354610D01*
X158861060Y-120606500D01*
X158861060Y-121071500D01*
X158335525Y-121071500D01*
X158389327Y-121017698D01*
X158486000Y-120784309D01*
X158486000Y-120193750D01*
X158327250Y-120035000D01*
X157353000Y-120035000D01*
X157353000Y-120055000D01*
X157099000Y-120055000D01*
X157099000Y-120035000D01*
X156124750Y-120035000D01*
X155966000Y-120193750D01*
X155966000Y-120784309D01*
X156062673Y-121017698D01*
X156203910Y-121158936D01*
X156149559Y-121193910D01*
X156004569Y-121406110D01*
X155960648Y-121623000D01*
X155283157Y-121623000D01*
X155219981Y-121305391D01*
X154917149Y-120852172D01*
X154868562Y-120819707D01*
X154969630Y-120738026D01*
X155231260Y-120257277D01*
X155246220Y-120183070D01*
X155123720Y-119967000D01*
X153511000Y-119967000D01*
X153511000Y-119987000D01*
X153257000Y-119987000D01*
X153257000Y-119967000D01*
X151644280Y-119967000D01*
X151521780Y-120183070D01*
X151536740Y-120257277D01*
X151798370Y-120738026D01*
X151899438Y-120819707D01*
X151850851Y-120852172D01*
X151548019Y-121305391D01*
X151441679Y-121840000D01*
X144292026Y-121840000D01*
X144123699Y-121671673D01*
X143890310Y-121575000D01*
X143542105Y-121575000D01*
X143752188Y-121365283D01*
X143978742Y-120819681D01*
X143979257Y-120228911D01*
X143753656Y-119682914D01*
X143336283Y-119264812D01*
X142790681Y-119038258D01*
X142199911Y-119037743D01*
X141653914Y-119263344D01*
X141235812Y-119680717D01*
X141009258Y-120226319D01*
X141008743Y-120817089D01*
X141234344Y-121363086D01*
X141445889Y-121575000D01*
X141097690Y-121575000D01*
X140864301Y-121671673D01*
X140685673Y-121850302D01*
X140589000Y-122083691D01*
X134060000Y-122083691D01*
X134060000Y-106628000D01*
X140689139Y-106628000D01*
X140627569Y-106718110D01*
G36*
X166937852Y-111161839D02*
X167102599Y-111408401D01*
X167991599Y-112297401D01*
X168238161Y-112462148D01*
X168529000Y-112520000D01*
X169166698Y-112520000D01*
X171674599Y-115027901D01*
X171784716Y-115101479D01*
X171724422Y-115191715D01*
X171611383Y-115760000D01*
X171712928Y-116270500D01*
X167256302Y-116270500D01*
X166018401Y-115032599D01*
X165942440Y-114981844D01*
X165942440Y-114920000D01*
X165898162Y-114684683D01*
X165759090Y-114468559D01*
X165546890Y-114323569D01*
X165340949Y-114281865D01*
X165554698Y-114193327D01*
X165733327Y-114014699D01*
X165830000Y-113781310D01*
X165830000Y-113315750D01*
X165671250Y-113157000D01*
X164572000Y-113157000D01*
X164572000Y-113177000D01*
X164318000Y-113177000D01*
X164318000Y-113157000D01*
X164298000Y-113157000D01*
X164298000Y-112903000D01*
X164318000Y-112903000D01*
X164318000Y-112883000D01*
X164572000Y-112883000D01*
X164572000Y-112903000D01*
X165671250Y-112903000D01*
X165830000Y-112744250D01*
X165830000Y-112278690D01*
X165733327Y-112045301D01*
X165554698Y-111866673D01*
X165342043Y-111778588D01*
X165530317Y-111743162D01*
X165746441Y-111604090D01*
X165891431Y-111391890D01*
X165898057Y-111359170D01*
X166056201Y-111424838D01*
X166428167Y-111425162D01*
X166771943Y-111283117D01*
X166930493Y-111124843D01*
X166937852Y-111161839D01*
X166937852Y-111161839D01*
G37*
X166937852Y-111161839D02*
X167102599Y-111408401D01*
X167991599Y-112297401D01*
X168238161Y-112462148D01*
X168529000Y-112520000D01*
X169166698Y-112520000D01*
X171674599Y-115027901D01*
X171784716Y-115101479D01*
X171724422Y-115191715D01*
X171611383Y-115760000D01*
X171712928Y-116270500D01*
X167256302Y-116270500D01*
X166018401Y-115032599D01*
X165942440Y-114981844D01*
X165942440Y-114920000D01*
X165898162Y-114684683D01*
X165759090Y-114468559D01*
X165546890Y-114323569D01*
X165340949Y-114281865D01*
X165554698Y-114193327D01*
X165733327Y-114014699D01*
X165830000Y-113781310D01*
X165830000Y-113315750D01*
X165671250Y-113157000D01*
X164572000Y-113157000D01*
X164572000Y-113177000D01*
X164318000Y-113177000D01*
X164318000Y-113157000D01*
X164298000Y-113157000D01*
X164298000Y-112903000D01*
X164318000Y-112903000D01*
X164318000Y-112883000D01*
X164572000Y-112883000D01*
X164572000Y-112903000D01*
X165671250Y-112903000D01*
X165830000Y-112744250D01*
X165830000Y-112278690D01*
X165733327Y-112045301D01*
X165554698Y-111866673D01*
X165342043Y-111778588D01*
X165530317Y-111743162D01*
X165746441Y-111604090D01*
X165891431Y-111391890D01*
X165898057Y-111359170D01*
X166056201Y-111424838D01*
X166428167Y-111425162D01*
X166771943Y-111283117D01*
X166930493Y-111124843D01*
X166937852Y-111161839D01*
G36*
X156681838Y-108835317D02*
X156820910Y-109051441D01*
X157033110Y-109196431D01*
X157285000Y-109247440D01*
X158785000Y-109247440D01*
X159020317Y-109203162D01*
X159236441Y-109064090D01*
X159381431Y-108851890D01*
X159384081Y-108838803D01*
X159520910Y-109051441D01*
X159733110Y-109196431D01*
X159985000Y-109247440D01*
X160843207Y-109247440D01*
X160643559Y-109375910D01*
X160498569Y-109588110D01*
X160482092Y-109669474D01*
X160206799Y-109555162D01*
X159834833Y-109554838D01*
X159491057Y-109696883D01*
X159227808Y-109959673D01*
X159085162Y-110303201D01*
X159084838Y-110675167D01*
X159219056Y-111000000D01*
X157280463Y-111000000D01*
X157248327Y-110967808D01*
X156904799Y-110825162D01*
X156532833Y-110824838D01*
X156189057Y-110966883D01*
X155925808Y-111229673D01*
X155783162Y-111573201D01*
X155782838Y-111945167D01*
X155924883Y-112288943D01*
X156187673Y-112552192D01*
X156531201Y-112694838D01*
X156903167Y-112695162D01*
X157246943Y-112553117D01*
X157280118Y-112520000D01*
X159584537Y-112520000D01*
X159616673Y-112552192D01*
X159775972Y-112618339D01*
X159592657Y-112694083D01*
X159329408Y-112956873D01*
X159186762Y-113300401D01*
X159186438Y-113672367D01*
X159328483Y-114016143D01*
X159591273Y-114279392D01*
X159934801Y-114422038D01*
X160306767Y-114422362D01*
X160650543Y-114280317D01*
X160786603Y-114144494D01*
X160943110Y-114251431D01*
X161070351Y-114277198D01*
X160859683Y-114316838D01*
X160643559Y-114455910D01*
X160498569Y-114668110D01*
X160469836Y-114810000D01*
X159318802Y-114810000D01*
X157811401Y-113302599D01*
X157564839Y-113137852D01*
X157274000Y-113080000D01*
X155069379Y-113080000D01*
X154917149Y-112852172D01*
X154898932Y-112840000D01*
X154917149Y-112827828D01*
X155219981Y-112374609D01*
X155326321Y-111840000D01*
X155219981Y-111305391D01*
X154917149Y-110852172D01*
X154463930Y-110549340D01*
X154144000Y-110485702D01*
X154144000Y-110074802D01*
X155508802Y-108710000D01*
X156658258Y-108710000D01*
X156681838Y-108835317D01*
X156681838Y-108835317D01*
G37*
X156681838Y-108835317D02*
X156820910Y-109051441D01*
X157033110Y-109196431D01*
X157285000Y-109247440D01*
X158785000Y-109247440D01*
X159020317Y-109203162D01*
X159236441Y-109064090D01*
X159381431Y-108851890D01*
X159384081Y-108838803D01*
X159520910Y-109051441D01*
X159733110Y-109196431D01*
X159985000Y-109247440D01*
X160843207Y-109247440D01*
X160643559Y-109375910D01*
X160498569Y-109588110D01*
X160482092Y-109669474D01*
X160206799Y-109555162D01*
X159834833Y-109554838D01*
X159491057Y-109696883D01*
X159227808Y-109959673D01*
X159085162Y-110303201D01*
X159084838Y-110675167D01*
X159219056Y-111000000D01*
X157280463Y-111000000D01*
X157248327Y-110967808D01*
X156904799Y-110825162D01*
X156532833Y-110824838D01*
X156189057Y-110966883D01*
X155925808Y-111229673D01*
X155783162Y-111573201D01*
X155782838Y-111945167D01*
X155924883Y-112288943D01*
X156187673Y-112552192D01*
X156531201Y-112694838D01*
X156903167Y-112695162D01*
X157246943Y-112553117D01*
X157280118Y-112520000D01*
X159584537Y-112520000D01*
X159616673Y-112552192D01*
X159775972Y-112618339D01*
X159592657Y-112694083D01*
X159329408Y-112956873D01*
X159186762Y-113300401D01*
X159186438Y-113672367D01*
X159328483Y-114016143D01*
X159591273Y-114279392D01*
X159934801Y-114422038D01*
X160306767Y-114422362D01*
X160650543Y-114280317D01*
X160786603Y-114144494D01*
X160943110Y-114251431D01*
X161070351Y-114277198D01*
X160859683Y-114316838D01*
X160643559Y-114455910D01*
X160498569Y-114668110D01*
X160469836Y-114810000D01*
X159318802Y-114810000D01*
X157811401Y-113302599D01*
X157564839Y-113137852D01*
X157274000Y-113080000D01*
X155069379Y-113080000D01*
X154917149Y-112852172D01*
X154898932Y-112840000D01*
X154917149Y-112827828D01*
X155219981Y-112374609D01*
X155326321Y-111840000D01*
X155219981Y-111305391D01*
X154917149Y-110852172D01*
X154463930Y-110549340D01*
X154144000Y-110485702D01*
X154144000Y-110074802D01*
X155508802Y-108710000D01*
X156658258Y-108710000D01*
X156681838Y-108835317D01*
G36*
X175792476Y-113093000D02*
X175812476Y-113093000D01*
X175812476Y-113347000D01*
X175792476Y-113347000D01*
X175792476Y-113367000D01*
X175538476Y-113367000D01*
X175538476Y-113347000D01*
X175518476Y-113347000D01*
X175518476Y-113093000D01*
X175538476Y-113093000D01*
X175538476Y-113073000D01*
X175792476Y-113073000D01*
X175792476Y-113093000D01*
X175792476Y-113093000D01*
G37*
X175792476Y-113093000D02*
X175812476Y-113093000D01*
X175812476Y-113347000D01*
X175792476Y-113347000D01*
X175792476Y-113367000D01*
X175538476Y-113367000D01*
X175538476Y-113347000D01*
X175518476Y-113347000D01*
X175518476Y-113093000D01*
X175538476Y-113093000D01*
X175538476Y-113073000D01*
X175792476Y-113073000D01*
X175792476Y-113093000D01*
G36*
X171628036Y-107752718D02*
X171628036Y-108990000D01*
X171672314Y-109225317D01*
X171811386Y-109441441D01*
X172023586Y-109586431D01*
X172091017Y-109600086D01*
X172046329Y-109629946D01*
X171724422Y-110111715D01*
X171611383Y-110680000D01*
X171724422Y-111248285D01*
X172046329Y-111730054D01*
X172375502Y-111950000D01*
X172046329Y-112169946D01*
X171724422Y-112651715D01*
X171678563Y-112882261D01*
X170018901Y-111222599D01*
X169772339Y-111057852D01*
X169481500Y-111000000D01*
X168843802Y-111000000D01*
X168400000Y-110556198D01*
X168400000Y-110172500D01*
X168342148Y-109881661D01*
X168177401Y-109635099D01*
X167789742Y-109247440D01*
X169105000Y-109247440D01*
X169340317Y-109203162D01*
X169422899Y-109150022D01*
X169649673Y-109377192D01*
X169993201Y-109519838D01*
X170365167Y-109520162D01*
X170708943Y-109378117D01*
X170972192Y-109115327D01*
X171114838Y-108771799D01*
X171115162Y-108399833D01*
X170973117Y-108056057D01*
X170710327Y-107792808D01*
X170366799Y-107650162D01*
X170319923Y-107650121D01*
X170134802Y-107465000D01*
X171340318Y-107465000D01*
X171628036Y-107752718D01*
X171628036Y-107752718D01*
G37*
X171628036Y-107752718D02*
X171628036Y-108990000D01*
X171672314Y-109225317D01*
X171811386Y-109441441D01*
X172023586Y-109586431D01*
X172091017Y-109600086D01*
X172046329Y-109629946D01*
X171724422Y-110111715D01*
X171611383Y-110680000D01*
X171724422Y-111248285D01*
X172046329Y-111730054D01*
X172375502Y-111950000D01*
X172046329Y-112169946D01*
X171724422Y-112651715D01*
X171678563Y-112882261D01*
X170018901Y-111222599D01*
X169772339Y-111057852D01*
X169481500Y-111000000D01*
X168843802Y-111000000D01*
X168400000Y-110556198D01*
X168400000Y-110172500D01*
X168342148Y-109881661D01*
X168177401Y-109635099D01*
X167789742Y-109247440D01*
X169105000Y-109247440D01*
X169340317Y-109203162D01*
X169422899Y-109150022D01*
X169649673Y-109377192D01*
X169993201Y-109519838D01*
X170365167Y-109520162D01*
X170708943Y-109378117D01*
X170972192Y-109115327D01*
X171114838Y-108771799D01*
X171115162Y-108399833D01*
X170973117Y-108056057D01*
X170710327Y-107792808D01*
X170366799Y-107650162D01*
X170319923Y-107650121D01*
X170134802Y-107465000D01*
X171340318Y-107465000D01*
X171628036Y-107752718D01*
M02*
